HIERARCHY
ROOT Hips
{
 OFFSET 0.000000 0.000000 0.000000
 CHANNELS 6 Xposition Yposition Zposition Yrotation Xrotation Zrotation
 JOINT Chest
 {
  OFFSET 0.000000 10.383400 0.001500
  CHANNELS 3 Yrotation Xrotation Zrotation
  JOINT Chest2
  {
   OFFSET 0.000000 10.418200 -0.003100
   CHANNELS 3 Yrotation Xrotation Zrotation
   JOINT Chest3
   {
    OFFSET 0.000000 10.375100 0.000000
    CHANNELS 3 Yrotation Xrotation Zrotation
    JOINT Chest4
    {
     OFFSET 0.000000 10.364600 0.000000
     CHANNELS 3 Yrotation Xrotation Zrotation
     JOINT Neck
     {
      OFFSET 0.000000 15.642200 0.000000
      CHANNELS 3 Yrotation Xrotation Zrotation
      JOINT Head
      {
       OFFSET 0.000000 9.697300 -0.006500
       CHANNELS 3 Yrotation Xrotation Zrotation
       End Site
       {
        OFFSET 0.000000 18.492200 -0.003400
       }
      }
     }
     JOINT RightCollar
     {
      OFFSET -3.166800 10.349300 0.000000
      CHANNELS 3 Yrotation Xrotation Zrotation
      JOINT RightShoulder
      {
       OFFSET -14.729700 0.000000 0.000000
       CHANNELS 3 Yrotation Xrotation Zrotation
       JOINT RightElbow
       {
        OFFSET 0.000000 -32.224300 0.000000
        CHANNELS 3 Yrotation Xrotation Zrotation
        JOINT RightWrist
        {
         OFFSET 0.000000 -26.084100 0.000000
         CHANNELS 3 Yrotation Xrotation Zrotation
         End Site
         {
          OFFSET 0.000000 -19.319400 0.000000
         }
        }
       }
      }
     }
     JOINT LeftCollar
     {
      OFFSET 3.166800 10.349300 0.000000
      CHANNELS 3 Yrotation Xrotation Zrotation
      JOINT LeftShoulder
      {
       OFFSET 14.729700 0.000000 0.000000
       CHANNELS 3 Yrotation Xrotation Zrotation
       JOINT LeftElbow
       {
        OFFSET 0.000000 -32.224300 0.000000
        CHANNELS 3 Yrotation Xrotation Zrotation
        JOINT LeftWrist
        {
         OFFSET 0.000000 -26.084100 0.000000
         CHANNELS 3 Yrotation Xrotation Zrotation
         End Site
         {
          OFFSET 0.000000 -19.319400 0.000000
         }
        }
       }
      }
     }
    }
   }
  }
 }
 JOINT RightHip
 {
  OFFSET -8.428900 -0.007500 -0.000800
  CHANNELS 3 Yrotation Xrotation Zrotation
  JOINT RightKnee
  {
   OFFSET 0.000000 -43.834600 0.000700
   CHANNELS 3 Yrotation Xrotation Zrotation
   JOINT RightAnkle
   {
    OFFSET 0.000000 -42.757000 0.001200
    CHANNELS 3 Yrotation Xrotation Zrotation
    JOINT RightToe
    {
     OFFSET 0.000000 -6.946900 15.649300
     CHANNELS 3 Yrotation Xrotation Zrotation
     End Site
     {
      OFFSET 0.000000 -1.580800 6.825800
     }
    }
   }
  }
 }
 JOINT LeftHip
 {
  OFFSET 8.428900 -0.007500 -0.000800
  CHANNELS 3 Yrotation Xrotation Zrotation
  JOINT LeftKnee
  {
   OFFSET 0.000000 -43.834600 0.000700
   CHANNELS 3 Yrotation Xrotation Zrotation
   JOINT LeftAnkle
   {
    OFFSET 0.000000 -42.757000 0.001200
    CHANNELS 3 Yrotation Xrotation Zrotation
    JOINT LeftToe
    {
     OFFSET 0.000000 -6.946900 15.649300
     CHANNELS 3 Yrotation Xrotation Zrotation
     End Site
     {
      OFFSET 0.000000 -1.580800 6.825800
     }
    }
   }
  }
 }
}
MOTION
Frames: 13
Frame Time: 0.008333
23.285535 126.898953 -49.525301 -16.369606 -27.282289 -1.516443 -0.368549 21.248966 2.189342 -0.098860 2.861369 0.292133 -0.149087 4.604562 0.477829 -0.370847 18.109723 1.858357 1.861237 12.615041 -1.282341 4.064523 -12.295304 -3.201767 -3.258217 -9.921850 -7.964923 -12.138661 -20.633179 2.125223 -78.295484 -41.876456 75.211642 -9.506993 -11.305162 13.205683 -5.110940 -12.909356 0.673923 13.077535 -22.689981 9.175875 63.603189 -26.830689 -80.111132 19.676760 -19.667793 -3.954761 -2.393945 -42.987706 -0.301111 -23.010112 74.048260 -24.399581 1.007053 -0.145136 6.358025 0.008803 -0.012025 0.003907 -4.073888 -36.085563 -5.804468 2.844747 69.021413 5.556741 -11.819861 -2.130006 -3.962943 0.002355 -0.001431 0.001046
23.286148 126.893023 -49.526151 -16.374186 -27.190288 -1.519670 -0.365146 21.195981 2.193893 -0.099993 2.902692 0.291625 -0.148732 4.615332 0.478581 -0.368422 18.127820 1.859206 2.001701 12.545079 -1.329262 4.354119 -12.416169 -3.352067 -3.265137 -9.868742 -7.870483 -12.128413 -20.714474 2.104497 -78.311906 -41.910886 75.242246 -9.499925 -11.269781 13.123123 -5.095651 -12.887563 0.691963 13.052654 -22.669110 9.171082 63.630151 -26.705927 -79.971672 19.744439 -19.680428 -3.961333 -2.400634 -43.073602 -0.285491 -22.999036 74.046983 -24.385898 1.006651 -0.168309 6.346095 0.006619 -0.010215 0.002938 -4.077468 -36.179615 -5.797038 2.822825 69.025299 5.539884 -11.815115 -2.123319 -3.955322 0.001177 -0.000886 0.000522
23.284484 126.892308 -49.516928 -16.377861 -27.163205 -1.519732 -0.366596 21.241955 2.189072 -0.091757 2.906837 0.299398 -0.148084 4.603427 0.477844 -0.363994 18.166351 1.865103 2.167540 12.472889 -1.388347 4.697463 -12.538647 -3.536367 -3.270230 -9.861129 -7.798789 -12.114943 -20.749716 2.090113 -78.248062 -41.882081 75.176346 -9.492532 -11.308656 13.101694 -5.082116 -12.879613 0.705735 13.028110 -22.638294 9.173114 63.639599 -26.549915 -79.838973 19.808951 -19.711183 -3.932032 -2.398455 -43.093138 -0.281885 -22.981188 74.049472 -24.365374 1.003485 -0.183437 6.338335 0.006901 -0.014075 0.003063 -4.081898 -36.206339 -5.799093 2.751003 69.034393 5.477178 -11.799377 -2.111711 -3.942018 0.002165 -0.001233 0.000961
23.282852 126.891625 -49.507369 -16.374946 -27.138704 -1.521697 -0.360936 21.286968 2.196347 -0.095629 2.913689 0.303729 -0.148447 4.548248 0.471864 -0.355328 18.247932 1.881133 2.359714 12.395728 -1.461252 5.097284 -12.667373 -3.758651 -3.280362 -9.874298 -7.744784 -12.080308 -20.769012 2.075724 -78.209126 -41.835270 75.131879 -9.488687 -11.345759 13.083536 -5.066968 -12.865751 0.712875 13.010996 -22.614731 9.176459 63.632344 -26.387979 -79.714220 19.858329 -19.762802 -3.874342 -2.373968 -43.103058 -0.307756 -22.955697 74.048592 -24.314487 1.004248 -0.198001 6.335731 0.003127 -0.011710 0.001388 -4.111775 -36.228703 -5.794207 2.745237 69.039055 5.463030 -11.784111 -2.116171 -3.943695 0.003227 -0.003084 0.001432
23.283068 126.886209 -49.506675 -16.383803 -27.059145 -1.521675 -0.353025 21.277464 2.206596 -0.091418 2.919783 0.310497 -0.147341 4.623390 0.481758 -0.350089 18.197504 1.886744 2.577766 12.314007 -1.546584 5.552271 -12.801180 -4.016094 -3.297163 -9.884964 -7.697749 -12.011521 -20.797074 2.048588 -78.226289 -41.799785 75.129635 -9.499654 -11.351546 13.062299 -5.053894 -12.849236 0.713863 13.006705 -22.587800 9.180332 63.616983 -26.246754 -79.596554 19.889607 -19.822179 -3.800586 -2.360989 -43.177672 -0.309243 -22.916334 74.056363 -24.269037 0.997773 -0.218089 6.334279 0.002337 -0.011313 0.001037 -4.123993 -36.311329 -5.783478 2.700135 69.045751 5.420888 -11.776373 -2.116243 -3.938406 0.004316 -0.001734 0.001916
23.282427 126.883192 -49.501000 -16.388486 -27.011051 -1.519608 -0.344274 21.299360 2.219793 -0.091944 2.925001 0.314237 -0.144741 4.653644 0.489878 -0.344796 18.190254 1.897542 2.818801 12.229723 -1.640238 6.055351 -12.936267 -4.299645 -3.312368 -9.894243 -7.656248 -11.912599 -20.828062 2.008324 -78.277153 -41.762598 75.137086 -9.508905 -11.343008 13.059032 -5.045693 -12.833687 0.708810 13.011598 -22.552702 9.187331 63.599903 -26.139202 -79.483815 19.909078 -19.878775 -3.724701 -2.323513 -43.215863 -0.342284 -22.867317 74.066532 -24.195113 0.994841 -0.241694 6.337734 -0.000294 -0.011000 -0.000131 -4.167817 -36.362038 -5.767860 2.734226 69.048749 5.435822 -11.790745 -2.119682 -3.937635 0.002047 -0.001677 0.000909
23.281545 126.879046 -49.497516 -16.396218 -26.951027 -1.520048 -0.332755 21.358883 2.248241 -0.091563 2.842645 0.299541 -0.144122 4.696647 0.502022 -0.339367 18.182372 1.903763 3.081545 12.166436 -1.727947 6.596007 -13.065656 -4.600710 -3.312484 -9.880275 -7.608440 -11.800454 -20.852384 1.952656 -78.397754 -41.769495 75.192340 -9.533096 -11.279770 13.056396 -5.036489 -12.796725 0.702001 13.010866 -22.508143 9.200925 63.587201 -26.064513 -79.377182 19.923838 -19.931416 -3.660900 -2.287072 -43.267876 -0.373813 -22.785410 74.082593 -24.083919 0.988690 -0.263635 6.335319 -0.000254 -0.010004 -0.000113 -4.196143 -36.424238 -5.753246 2.745936 69.052405 5.440663 -11.807899 -2.128211 -3.935014 -0.000351 -0.001458 -0.000156
23.279816 126.875435 -49.493069 -16.406246 -26.899151 -1.521516 -0.323595 21.386074 2.271935 -0.087706 2.800460 0.289361 -0.146346 4.730837 0.516906 -0.340544 18.134993 1.889930 3.362767 12.146317 -1.796522 7.157805 -13.175694 -4.912287 -3.297134 -9.821164 -7.546318 -11.687038 -20.870060 1.884321 -78.461020 -41.747390 75.201468 -9.510075 -11.261068 13.073912 -5.022178 -12.715341 0.701775 12.997848 -22.455010 9.213703 63.580944 -26.017947 -79.272433 19.938649 -19.974427 -3.624706 -2.250986 -43.311839 -0.402673 -22.728115 74.089245 -23.997737 0.990510 -0.273435 6.336515 -0.000873 -0.011194 -0.000387 -4.209316 -36.475961 -5.747876 2.715949 69.059124 5.417605 -11.793155 -2.142476 -3.934413 -0.000545 -0.001073 -0.000242
23.278118 126.872032 -49.488147 -16.413119 -26.851402 -1.522348 -0.320116 21.393640 2.291447 -0.091647 2.851838 0.304917 -0.142201 4.683681 0.508440 -0.338126 18.156147 1.905734 3.634206 12.072064 -1.899297 7.716776 -13.250646 -5.224847 -3.273494 -9.822612 -7.511446 -11.577362 -20.892537 1.814151 -78.517205 -41.769309 75.201748 -9.480539 -11.229730 13.084328 -5.000428 -12.699391 0.674689 12.974759 -22.398996 9.217958 63.573884 -25.986837 -79.165727 19.956745 -20.004798 -3.619624 -2.218641 -43.352907 -0.428934 -22.568113 74.121298 -23.822341 0.953263 -0.294949 6.344978 -0.002554 -0.010345 -0.001133 -4.215820 -36.518973 -5.750845 2.697011 69.065599 5.404655 -11.758964 -2.176718 -3.922016 0.000588 -0.001840 0.000261
23.275735 126.868685 -49.483457 -16.421928 -26.805821 -1.524835 -0.314532 21.396370 2.313234 -0.091474 2.866043 0.312585 -0.141105 4.670005 0.507573 -0.331588 18.168530 1.926208 3.887656 12.025750 -2.004933 8.246757 -13.282607 -5.527506 -3.252504 -9.802484 -7.481020 -11.476439 -20.928856 1.747734 -78.577974 -41.844406 75.201906 -9.445779 -11.177679 13.079309 -4.977563 -12.667912 0.640615 12.946087 -22.349291 9.215543 63.559281 -25.952969 -79.062583 19.980577 -20.025346 -3.630384 -2.187085 -43.384002 -0.451958 -22.484755 74.131017 -23.718652 0.942423 -0.316413 6.352237 -0.005646 -0.004427 -0.002506 -4.217440 -36.563374 -5.745936 2.659719 69.075335 5.372324 -11.737241 -2.200354 -3.911681 0.001965 -0.001664 0.000872
23.272937 126.865262 -49.479318 -16.434127 -26.760946 -1.527106 -0.303205 21.392655 2.336613 -0.090722 2.865751 0.315129 -0.139789 4.669509 0.511679 -0.330233 18.176473 1.942678 4.121625 12.001797 -2.103498 8.723816 -13.279812 -5.808050 -3.231942 -9.766904 -7.447971 -11.390171 -20.977350 1.685913 -78.605557 -41.962352 75.184987 -9.405669 -11.140005 13.056537 -4.948398 -12.623729 0.607664 12.917796 -22.312995 9.207453 63.536339 -25.900877 -78.968971 20.009253 -20.036239 -3.637835 -2.179884 -43.422404 -0.445787 -22.454237 74.136596 -23.687367 0.935420 -0.327497 6.355342 -0.003099 -0.004710 -0.001376 -4.216028 -36.606969 -5.748667 2.653879 69.084611 5.380918 -11.715333 -2.226804 -3.908507 0.002445 -0.001367 0.001086
23.270446 126.861994 -49.475110 -16.441821 -26.719708 -1.527736 -0.291746 21.388495 2.357685 -0.090061 2.865469 0.317558 -0.138662 4.669067 0.515528 -0.327239 18.175040 1.962814 4.318784 11.996526 -2.195012 9.131610 -13.263107 -6.053735 -3.218802 -9.716542 -7.417477 -11.318320 -21.031828 1.627115 -78.608107 -42.116707 75.158726 -9.364859 -11.122310 13.013621 -4.916803 -12.564635 0.572255 12.893048 -22.293268 9.192312 63.504550 -25.819052 -78.891156 20.040830 -20.039606 -3.627646 -2.177549 -43.460953 -0.440407 -22.438353 74.145381 -23.674362 0.928156 -0.335797 6.358191 -0.000804 -0.006849 -0.000357 -4.197106 -36.649463 -5.765297 2.657119 69.096678 5.406990 -11.701704 -2.244841 -3.905604 0.000981 -0.001290 0.000436
23.267889 126.860633 -49.467396 -16.439641 -26.703481 -1.525721 -0.288794 21.407731 2.372858 -0.089960 2.856882 0.314803 -0.137433 4.677207 0.523835 -0.321158 18.175535 1.978566 4.474638 11.988861 -2.268689 9.463110 -13.251138 -6.257981 -3.209740 -9.660584 -7.385052 -11.255018 -21.091171 1.568981 -78.610467 -42.286537 75.135085 -9.327879 -11.121083 12.956795 -4.877088 -12.502297 0.538693 12.872253 -22.289588 9.171319 63.462492 -25.705582 -78.836512 20.074382 -20.039969 -3.591969 -2.168833 -43.472660 -0.444007 -22.431773 74.171727 -23.677013 0.911694 -0.372353 6.366779 0.000409 -0.007339 0.000182 -4.185371 -36.665156 -5.780412 2.636389 69.107515 5.393161 -11.684994 -2.262133 -3.892802 0.000158 -0.001534 0.000070
